<?xml version="1.0" encoding="UTF-8"?>
<svg version="1.1" xmlns="http://www.w3.org/2000/svg" width="196" height="196">
<path d="M0 0 C64.68 0 129.36 0 196 0 C196 64.68 196 129.36 196 196 C131.32 196 66.64 196 0 196 C0 131.32 0 66.64 0 0 Z " fill="#FEFEFE" transform="translate(0,0)"/>
<path d="M0 0 C5.6523298 4.59452139 10.43475959 10.53474752 12.75390625 17.4921875 C14.045535 32.38282179 10.00744134 42.88614379 0.54296875 54.33203125 C-17.02785908 74.68273987 -42.02731195 88.20167535 -65.00634766 101.47900391 C-70.23106549 104.501604 -75.4505534 107.53717231 -80.55859375 110.75390625 C-81.25597656 111.19049561 -81.95335938 111.62708496 -82.671875 112.0769043 C-84.62422124 113.83213865 -85.03473452 114.88951244 -85.24609375 117.4921875 C-82.45544986 122.55668937 -79.74286864 125.6599292 -74.24609375 127.4921875 C-56.76488024 129.4735589 -41.21741754 121.60849589 -26.24609375 113.4921875 C-25.59962891 113.14816895 -24.95316406 112.80415039 -24.28710938 112.44970703 C-15.25933502 107.63264833 -6.69591814 102.28777692 1.72802734 96.47753906 C8.200261 92.04386173 12.81029657 89.84107195 20.75390625 90.4921875 C23.27257464 94.27019008 23.57494981 97.12808211 22.75390625 101.4921875 C14.76209885 120.39296394 -6.65535458 132.01279098 -24.24609375 140.4921875 C-25.12523437 140.92273438 -26.004375 141.35328125 -26.91015625 141.796875 C-46.11088429 150.30853795 -69.4949293 151.69266845 -89.24609375 144.4921875 C-95.77321878 141.50417644 -101.90725763 137.30383955 -106.24609375 131.4921875 C-106.9296875 129.28125 -106.9296875 129.28125 -107.24609375 127.4921875 C-111.24004116 129.66281109 -114.98649193 131.97103848 -118.68359375 134.6171875 C-124.44823569 138.70964323 -130.41273215 142.439083 -136.44921875 146.11328125 C-138.68484281 147.48246467 -140.71372306 148.85438505 -142.79296875 150.46484375 C-150.59227135 156.3143207 -160.89592279 155.51711009 -170.24609375 154.4921875 C-170.90609375 154.1621875 -171.56609375 153.8321875 -172.24609375 153.4921875 C-172.08203125 151.21875 -172.08203125 151.21875 -171.24609375 148.4921875 C-168.97265625 146.640625 -168.97265625 146.640625 -165.87109375 144.8671875 C-165.30165039 144.53364258 -164.73220703 144.20009766 -164.14550781 143.85644531 C-162.18922603 142.71623025 -160.21958517 141.60233419 -158.24609375 140.4921875 C-148.59253017 135.04252611 -139.05769202 129.58343107 -129.99609375 123.1796875 C-129.31772461 122.70047852 -128.63935547 122.22126953 -127.94042969 121.72753906 C-123.99402889 118.88620914 -120.30032548 115.87497617 -116.70019531 112.60473633 C-115.24609375 111.4921875 -115.24609375 111.4921875 -113.24609375 111.4921875 C-113.48839722 110.40212402 -113.48839722 110.40212402 -113.7355957 109.29003906 C-114.52843078 104.94480234 -114.43050386 100.64836871 -114.43359375 96.2421875 C-114.44583984 95.33855469 -114.45808594 94.43492187 -114.47070312 93.50390625 C-114.48990067 84.60904557 -112.8189943 76.96393336 -109.18359375 68.8671875 C-108.87905273 68.18551514 -108.57451172 67.50384277 -108.26074219 66.80151367 C-102.63567991 54.54085658 -95.56154695 43.96435179 -86.54980469 33.95166016 C-85.34540676 32.60336599 -84.17306876 31.22661621 -83.00390625 29.84765625 C-64.81096361 8.68919732 -27.95117847 -18.76374763 0 0 Z " fill="#E42028" transform="translate(173.24609375,40.5078125)"/>
<path d="M0 0 C2.69774259 1.72761841 4.18169276 3.53425789 5.9609375 6.203125 C5.9609375 13.57839117 2.19241714 17.8491248 -2.6875 22.9140625 C-17.08574543 36.30631699 -35.65186387 44.47191659 -53.0390625 53.203125 C-54.12828003 53.79480469 -54.12828003 53.79480469 -55.23950195 54.3984375 C-57.0390625 55.203125 -57.0390625 55.203125 -60.0390625 55.203125 C-56.150255 42.09865389 -47.6872198 30.58912403 -39.0390625 20.203125 C-38.28625 19.29691406 -37.5334375 18.39070313 -36.7578125 17.45703125 C-27.73938453 7.02550453 -15.09350471 -5.89861104 0 0 Z " fill="#FEFBFB" transform="translate(152.0390625,61.796875)"/>
<path d="M0 0 C3.41880162 3.41880162 3.89265522 7.24858653 4.5625 11.9375 C4.46658043 15.52078106 3.39443139 17.1773835 0.9375 19.75 C-3.30891597 23.48273662 -7.26653724 26.72107523 -13.0625 27.3125 C-17.63820014 25.26803823 -19.7406514 21.36647158 -22 17 C-22 16.34 -22 15.68 -22 15 C-21.04738281 14.54109375 -20.09476563 14.0821875 -19.11328125 13.609375 C-17.84619428 12.98991026 -16.5792761 12.37010019 -15.3125 11.75 C-14.68666016 11.44964844 -14.06082031 11.14929687 -13.41601562 10.83984375 C-7.93572842 8.14273905 -3.48510107 5.13593843 0 0 Z " fill="#15944A" transform="translate(165,1)"/>
</svg>
